<?xml version="1.0" encoding="UTF-8" standalone="no"?>
<svg
   xmlns:osb="http://www.openswatchbook.org/uri/2009/osb"
   xmlns:dc="http://purl.org/dc/elements/1.1/"
   xmlns:cc="http://creativecommons.org/ns#"
   xmlns:rdf="http://www.w3.org/1999/02/22-rdf-syntax-ns#"
   xmlns:svg="http://www.w3.org/2000/svg"
   xmlns="http://www.w3.org/2000/svg"
   xmlns:sodipodi="http://sodipodi.sourceforge.net/DTD/sodipodi-0.dtd"
   xmlns:inkscape="http://www.inkscape.org/namespaces/inkscape"
   inkscape:export-ydpi="96"
   inkscape:export-xdpi="96"
   inkscape:export-filename="D:\Desktop\BMGK\Logo\BMGK.png"
   width="66.36039mm"
   height="30mm"
   viewBox="0 0 66.360389 30"
   version="1.1"
   id="svg3343"
   inkscape:version="1.0.2 (e86c870879, 2021-01-15, custom)"
   sodipodi:docname="BMGK_V2.svg">
  <defs
     id="defs3337">
    <linearGradient
       osb:paint="solid"
       id="linearGradient2836">
      <stop
         id="stop2834"
         offset="0"
         style="stop-color:#000000;stop-opacity:1;" />
    </linearGradient>
  </defs>
  <sodipodi:namedview
     inkscape:pagecheckerboard="false"
     id="base"
     pagecolor="#ffffff"
     bordercolor="#666666"
     borderopacity="1.0"
     inkscape:pageopacity="1"
     inkscape:pageshadow="2"
     inkscape:zoom="1.4142136"
     inkscape:cx="36.856561"
     inkscape:cy="231.32873"
     inkscape:document-units="mm"
     inkscape:current-layer="layer1"
     inkscape:document-rotation="0"
     showgrid="false"
     fit-margin-top="5"
     fit-margin-left="5"
     lock-margins="true"
     fit-margin-right="5"
     fit-margin-bottom="5"
     inkscape:window-width="1920"
     inkscape:window-height="1017"
     inkscape:window-x="-8"
     inkscape:window-y="-8"
     inkscape:window-maximized="1" />
  <metadata
     id="metadata3340">
    <rdf:RDF>
      <cc:Work
         rdf:about="">
        <dc:format>image/svg+xml</dc:format>
        <dc:type
           rdf:resource="http://purl.org/dc/dcmitype/StillImage" />
        <dc:title />
      </cc:Work>
    </rdf:RDF>
  </metadata>
  <g
     inkscape:label="Warstwa 1"
     inkscape:groupmode="layer"
     id="layer1"
     transform="translate(-136.16272,-53.892702)">
    <path
       id="path3316"
       style="font-style:normal;font-variant:normal;font-weight:bold;font-stretch:normal;font-size:20.3636px;line-height:1.25;font-family:Impact;-inkscape-font-specification:'Impact Bold';fill:#33691e;fill-opacity:1;stroke:none;stroke-width:0.606994"
       d="m 141.16293,61.412658 v 1.914095 h 10.54768 c -0.011,-0.0172 -0.0208,-0.0365 -0.032,-0.05323 -0.49793,-0.750847 -1.15429,-1.248445 -1.96836,-1.493449 -0.80616,-0.245012 -1.99544,-0.367419 -3.56825,-0.367419 z m 0,2.465482 v 1.957504 h 4.99091 v -1.139466 c 0.51373,0.0079 0.85758,0.04378 1.03146,0.10697 0.18178,0.06323 0.32808,0.216975 0.43874,0.461988 0.0615,0.131847 0.10394,0.326237 0.13125,0.570508 h 4.63073 c -0.0603,-0.786658 -0.19413,-1.437912 -0.39946,-1.957504 z m 0,2.695443 v 14.032735 h 5.77329 c 2.00752,0 3.33513,-0.114446 3.98322,-0.343648 0.64809,-0.229202 1.11886,-0.65616 1.41129,-1.280542 0.30033,-0.624383 0.4501,-1.584775 0.4501,-2.880961 v -1.778186 c 0,-1.248766 -0.20552,-2.17332 -0.6165,-2.773991 -0.41099,-0.608572 -1.19323,-1.043499 -2.34715,-1.304313 1.03537,-0.237112 1.72705,-0.576974 2.07481,-1.019576 0.35566,-0.442594 0.5333,-1.224835 0.5333,-2.347144 0,-0.105074 -0.004,-0.202975 -0.006,-0.304374 h -4.63021 c -0.002,1.104286 -0.0684,1.782231 -0.2005,2.023132 -0.13437,0.237103 -0.44637,0.355534 -0.93638,0.355534 -0.11855,0 -0.28476,0.0039 -0.49816,0.01188 v -2.390552 z m 4.99091,5.378483 c 0.74293,0.02371 1.20123,0.122226 1.37511,0.296106 0.17388,0.173878 0.26097,0.671993 0.26097,1.493965 v 1.790072 c 0,0.774551 -0.099,1.260719 -0.29663,1.458309 -0.18968,0.197607 -0.63603,0.308076 -1.33945,0.331763 z" />
    <path
       id="path3318"
       style="font-style:normal;font-variant:normal;font-weight:bold;font-stretch:normal;font-size:20.3636px;line-height:1.25;font-family:Impact;-inkscape-font-specification:'Impact Bold';fill:#33691e;fill-opacity:1;stroke:none;stroke-width:0.606994"
       d="m 154.58278,61.412658 v 1.914095 h 6.75928 c -0.1022,-0.690117 -0.20154,-1.329388 -0.29765,-1.914095 z m 8.89197,0 -0.24288,1.914095 h 6.75101 v -1.914095 z m -8.89197,2.465482 v 1.957504 h 7.11482 l -0.0486,-0.345199 c -0.0784,-0.575238 -0.15369,-1.092678 -0.22893,-1.612305 z m 8.57881,0 -0.24856,1.957504 h 7.06985 V 63.87814 Z m -8.57881,2.695443 v 14.032735 h 4.36305 V 67.944559 l 1.83761,12.661759 h 3.09438 l 1.74253,-12.957865 v 12.957865 h 4.36253 V 66.573583 h -7.16391 l -0.48265,3.801318 -0.53486,-3.801318 z" />
    <path
       d="m 176.85171,61.033352 c -1.20459,0.08566 -2.21079,0.423729 -3.01584,1.01906 -0.54308,0.400406 -0.95733,0.825656 -1.25109,1.27434 h 4.26021 z m 1.59628,0.02636 v 2.267045 h 4.18476 c -0.34549,-0.526829 -0.84859,-0.999925 -1.51722,-1.416451 -0.74138,-0.461842 -1.63166,-0.74393 -2.66754,-0.850594 z m -6.15621,2.818433 c -0.0613,0.148023 -0.1145,0.297776 -0.15089,0.450618 -0.0929,0.39002 -0.16318,0.895159 -0.2124,1.506885 h 4.90927 l 0.006,-1.957503 z m 6.15621,0 v 1.957503 h 4.90875 c -0.0716,-0.714177 -0.18958,-1.30986 -0.35657,-1.77922 -0.0213,-0.06048 -0.0485,-0.11902 -0.0734,-0.178283 z m -6.56135,2.695442 c -0.0252,0.527043 -0.0424,1.095595 -0.0424,1.750798 v 5.701978 c 0,1.319898 0.0478,2.312141 0.14263,2.976045 0.0948,0.655994 0.3317,1.283969 0.71107,1.88464 0.37936,0.600671 0.9327,1.106747 1.65985,1.517737 0.73501,0.403081 1.52125,0.604614 2.35902,0.604614 0.70342,0 1.312,-0.146298 1.82573,-0.438733 0.52164,-0.300335 0.95258,-0.746682 1.29243,-1.339453 l 0.4625,1.37511 h 3.14141 V 70.304104 h -5.8446 v 2.916101 h 1.00769 v 2.276347 c 0,0.893098 -0.0672,1.493712 -0.20154,1.801957 -0.12646,0.308236 -0.37127,0.462504 -0.73484,0.462504 -0.33194,0 -0.55339,-0.134352 -0.66404,-0.403076 -0.11065,-0.276624 -0.16588,-0.845903 -0.16588,-1.707389 v -9.076966 z m 6.56135,0 v 0.161748 1.743046 h 4.99091 v -0.829924 c 0,-0.380534 -0.009,-0.738288 -0.0258,-1.07487 z"
       style="font-style:normal;font-variant:normal;font-weight:bold;font-stretch:normal;font-size:20.3636px;line-height:1.25;font-family:Impact;-inkscape-font-specification:'Impact Bold';fill:#33691e;fill-opacity:1;stroke:none;stroke-width:0.606994"
       id="path3320" />
    <path
       id="path3322"
       style="font-style:normal;font-variant:normal;font-weight:bold;font-stretch:normal;font-size:20.3636px;line-height:1.25;font-family:Impact;-inkscape-font-specification:'Impact Bold';fill:#33691e;fill-opacity:1;stroke:none;stroke-width:0.606994"
       d="m 185.35972,61.412658 v 1.914095 h 4.99091 v -1.914095 z m 7.20782,0 -0.56895,1.914095 h 4.6209 l 0.63097,-1.914095 z m -7.20782,2.465482 v 1.957504 h 4.99091 V 63.87814 Z m 6.47454,0 -0.58188,1.957504 h 4.53977 l 0.64544,-1.957504 z m -6.47454,2.695443 v 14.032735 h 4.99091 v -8.227405 l 2.01538,8.227405 h 5.1573 l -3.13004,-10.527523 1.15549,-3.505212 h -4.51549 l -0.68264,2.295984 v -2.295984 z" />
  </g>
</svg>
