<?xml version="1.0" encoding="UTF-8" standalone="no"?>
<svg
   xmlns:dc="http://purl.org/dc/elements/1.1/"
   xmlns:cc="http://creativecommons.org/ns#"
   xmlns:rdf="http://www.w3.org/1999/02/22-rdf-syntax-ns#"
   xmlns:svg="http://www.w3.org/2000/svg"
   xmlns="http://www.w3.org/2000/svg"
   xmlns:sodipodi="http://sodipodi.sourceforge.net/DTD/sodipodi-0.dtd"
   xmlns:inkscape="http://www.inkscape.org/namespaces/inkscape"
   sodipodi:docname="PlcCreator.svg"
   inkscape:version="1.0.2 (e86c870879, 2021-01-15, custom)"
   id="svg2008"
   version="1.1"
   viewBox="0 0 60.262024 60.262112"
   height="60.262112mm"
   width="60.262024mm"
   inkscape:export-filename="D:\Desktop\BMGK\Logo\PlcCreator.png"
   inkscape:export-xdpi="96"
   inkscape:export-ydpi="96">
  <defs
     id="defs2002" />
  <sodipodi:namedview
     inkscape:window-maximized="0"
     inkscape:window-y="389"
     inkscape:window-x="249"
     inkscape:window-height="1040"
     inkscape:window-width="1280"
     fit-margin-bottom="5"
     fit-margin-right="5"
     fit-margin-left="5"
     fit-margin-top="5"
     lock-margins="true"
     showgrid="false"
     inkscape:document-rotation="0"
     inkscape:current-layer="layer1"
     inkscape:document-units="mm"
     inkscape:cy="167.51111"
     inkscape:cx="11.343345"
     inkscape:zoom="0.98994949"
     inkscape:pageshadow="2"
     inkscape:pageopacity="0.0"
     borderopacity="1.0"
     bordercolor="#666666"
     pagecolor="#ffffff"
     id="base" />
  <metadata
     id="metadata2005">
    <rdf:RDF>
      <cc:Work
         rdf:about="">
        <dc:format>image/svg+xml</dc:format>
        <dc:type
           rdf:resource="http://purl.org/dc/dcmitype/StillImage" />
        <dc:title />
      </cc:Work>
    </rdf:RDF>
  </metadata>
  <g
     transform="translate(-76.53523,-115.11231)"
     id="layer1"
     inkscape:groupmode="layer"
     inkscape:label="Warstwa 1">
    <path
       id="path1808"
       style="fill:#000000;fill-opacity:1;stroke:#000000;stroke-width:1.69341;stroke-linecap:round;stroke-linejoin:round;stroke-miterlimit:4;stroke-dasharray:none"
       d="m 86.772795,120.95902 c -0.60814,0 -1.18688,0.12261 -1.71255,0.34417 -0.26284,0.11078 -0.51217,0.24611 -0.7457,0.40359 -0.23352,0.15748 -0.45115,0.33698 -0.64957,0.53537 -0.0992,0.0992 -0.19332,0.20276 -0.28267,0.31109 -8e-5,1e-4 8e-5,5.2e-4 0,5.2e-4 -0.0892,0.10823 -0.17402,0.22081 -0.2527,0.33745 -7e-5,1.1e-4 8e-5,5.3e-4 0,5.3e-4 -0.23614,0.35014 -0.423,0.73647 -0.55087,1.14928 -5e-5,1.6e-4 5e-5,2.7e-4 0,5.3e-4 -0.0426,0.1375 -0.0789,0.27764 -0.108,0.42065 -3e-5,1.6e-4 3e-5,2.6e-4 0,5.3e-4 -0.0291,0.14301 -0.0512,0.28887 -0.0661,0.43666 -1e-5,1.7e-4 2e-5,2.7e-4 0,5.3e-4 -0.0149,0.1478 -0.0227,0.29773 -0.0227,0.44959 v 5.3e-4 32.61764 5.3e-4 7.16856 c 0,2.43256 1.95839,4.39095 4.39094,4.39095 h 1.97146 c 12.605265,0 25.210525,0 37.815785,0 2.43255,0 4.39043,-1.95839 4.39043,-4.39095 v -1.97146 c 0,-12.60509 0,-25.21017 0,-37.81526 0,-0.60814 -0.12261,-1.18688 -0.34417,-1.71256 -0.0899,-0.21329 -0.19989,-0.41491 -0.32091,-0.60926 -0.06,-0.0964 -0.12357,-0.18994 -0.19069,-0.28112 -0.13102,-0.17801 -0.27145,-0.34894 -0.42736,-0.50488 -0.15594,-0.15591 -0.32687,-0.29633 -0.50488,-0.42736 -0.0912,-0.0671 -0.1847,-0.13066 -0.28112,-0.19069 -0.19435,-0.12101 -0.39597,-0.23101 -0.60926,-0.32091 -0.52553,-0.2215 -1.1041,-0.34409 -1.71204,-0.34417 -13.26242,0 -26.52483,0 -39.787245,0 z"
       sodipodi:nodetypes="csssscscscscscscccssccsccssscssscc" />
    <text
       xml:space="preserve"
       style="font-style:normal;font-weight:normal;font-size:6.9437px;line-height:1.25;font-family:sans-serif;fill:#ffffff;fill-opacity:1;stroke:none;stroke-width:0.173592"
       x="86.386375"
       y="146.3647"
       id="text1812"><tspan
         sodipodi:role="line"
         id="tspan1810"
         x="86.386375"
         y="146.3647"
         style="font-style:normal;font-variant:normal;font-weight:bold;font-stretch:normal;font-family:sans-serif;-inkscape-font-specification:'sans-serif Bold';fill:#ffffff;stroke-width:0.173592">creator</tspan></text>
    <text
       id="text1806"
       y="138.83136"
       x="85.044823"
       style="font-style:normal;font-weight:normal;font-size:17.6764px;line-height:1.25;font-family:sans-serif;fill:#ffffff;fill-opacity:1;stroke:none;stroke-width:0.441907"
       xml:space="preserve"><tspan
         style="font-style:normal;font-variant:normal;font-weight:bold;font-stretch:normal;font-family:sans-serif;-inkscape-font-specification:'sans-serif Bold';fill:#ffffff;stroke-width:0.441907"
         y="138.83136"
         x="85.044823"
         id="tspan1804"
         sodipodi:role="line">PLC</tspan></text>
    <text
       xml:space="preserve"
       style="font-size:8.47712px;line-height:1.25;font-family:sans-serif;fill:#ffffff;fill-opacity:1;stroke:#000000;stroke-width:0.113533;stroke-opacity:1"
       x="108.50157"
       y="157.59346"
       id="text865"
       transform="scale(0.9425389,1.0609642)"><tspan
         sodipodi:role="line"
         id="tspan863"
         x="108.50157"
         y="157.59346"
         style="fill:#ffffff;fill-opacity:1;stroke:#000000;stroke-width:0.113533;stroke-opacity:1">VASS6</tspan></text>
  </g>
</svg>
