<?xml version="1.0" encoding="UTF-8" standalone="no"?>
<svg
   xmlns:dc="http://purl.org/dc/elements/1.1/"
   xmlns:cc="http://creativecommons.org/ns#"
   xmlns:rdf="http://www.w3.org/1999/02/22-rdf-syntax-ns#"
   xmlns:svg="http://www.w3.org/2000/svg"
   xmlns="http://www.w3.org/2000/svg"
   xmlns:xlink="http://www.w3.org/1999/xlink"
   xmlns:sodipodi="http://sodipodi.sourceforge.net/DTD/sodipodi-0.dtd"
   xmlns:inkscape="http://www.inkscape.org/namespaces/inkscape"
   width="85.149605mm"
   height="85mm"
   viewBox="0 0 85.149605 85"
   version="1.1"
   id="svg8"
   inkscape:version="1.0.2 (e86c870879, 2021-01-15, custom)"
   sodipodi:docname="TiaV16.svg">
  <defs
     id="defs2">
    <linearGradient
       inkscape:collect="always"
       id="linearGradient857">
      <stop
         style="stop-color:#262938;stop-opacity:1;"
         offset="0"
         id="stop853" />
      <stop
         style="stop-color:#42495c;stop-opacity:1"
         offset="1"
         id="stop855" />
    </linearGradient>
    <linearGradient
       inkscape:collect="always"
       xlink:href="#linearGradient857"
       id="linearGradient996"
       gradientUnits="userSpaceOnUse"
       x1="54.882313"
       y1="154.77588"
       x2="122.61565"
       y2="154.77588"
       gradientTransform="matrix(1.1062259,0,0,1.1062259,-9.4274376,-114.26943)" />
  </defs>
  <sodipodi:namedview
     id="base"
     pagecolor="#ffffff"
     bordercolor="#666666"
     borderopacity="1.0"
     inkscape:pageopacity="0.0"
     inkscape:pageshadow="2"
     inkscape:zoom="0.7"
     inkscape:cx="196.09497"
     inkscape:cy="334.17886"
     inkscape:document-units="mm"
     inkscape:current-layer="layer1"
     inkscape:document-rotation="0"
     showgrid="false"
     lock-margins="true"
     fit-margin-top="5"
     fit-margin-left="5"
     fit-margin-right="5"
     fit-margin-bottom="5"
     inkscape:window-width="1920"
     inkscape:window-height="1017"
     inkscape:window-x="-8"
     inkscape:window-y="-8"
     inkscape:window-maximized="1" />
  <metadata
     id="metadata5">
    <rdf:RDF>
      <cc:Work
         rdf:about="">
        <dc:format>image/svg+xml</dc:format>
        <dc:type
           rdf:resource="http://purl.org/dc/dcmitype/StillImage" />
        <dc:title></dc:title>
      </cc:Work>
    </rdf:RDF>
  </metadata>
  <g
     inkscape:label="Warstwa 1"
     inkscape:groupmode="layer"
     id="layer1"
     transform="translate(-46.174175,-51.780047)">
    <rect
       style="fill:url(#linearGradient996);fill-opacity:1;stroke:#ffffff;stroke-width:0.221245;stroke-miterlimit:10;paint-order:stroke fill markers"
       id="rect974"
       width="74.92836"
       height="74.92836"
       x="51.284798"
       y="56.947762"
       ry="0" />
    <g
       id="g982"
       transform="translate(-0.11649379,-22.163016)">
      <path
         id="path976"
         style="fill:#ffffff;stroke:#ffffff;stroke-width:1.05595px;stroke-linecap:butt;stroke-linejoin:miter;stroke-opacity:1"
         d="m 287.97852,353.76758 v -14.23047 h -15.99219 -15.99219 -15.99219 -15.99023 -15.99219 v 14.23047 h 15.99219 l 14.2207,0.0137 V 368.89062 384 v 15.10742 15.10938 15.10742 15.10937 h 19.53125 V 429.32422 414.2168 399.10742 384 368.89062 353.78125 Z"
         transform="scale(0.26458333)"
         sodipodi:nodetypes="cccccccccccccccccccccccc" />
      <path
         id="path978"
         style="fill:#ffffff;stroke:#ffffff;stroke-width:0.999999px;stroke-linecap:butt;stroke-linejoin:miter;stroke-opacity:1"
         d="m 368.34961,339.53711 -1.76953,0.0137 -38,104.88281 h 19.53125 l 10.86328,-29.98437 h 10.49023 14.28516 11.9668 l 10.86328,29.98437 h 19.53125 l -38,-104.88281 -1.76953,-0.0137 h -2 -13.99219 z m 8.99609,24.20703 13.19532,36.41992 H 383.75 369.46484 364.15039 Z"
         transform="scale(0.26458333)" />
      <path
         id="path980"
         style="fill:#ffffff;stroke:#ffffff;stroke-width:0.279387px;stroke-linecap:butt;stroke-linejoin:miter;stroke-opacity:1"
         d="m 83.885982,93.604621 v -3.765145 0 l -0.468188,-0.0036 h -4.231267 l -0.468188,0.0036 v 0 3.765145 0 0 3.99768 3.997699 3.99717 3.99769 3.99717 3.99769 h 5.167643 v -3.99769 -3.99717 -3.99769 V 101.6 97.602309 Z"
         sodipodi:nodetypes="cccccccccccccccccccccccc" />
    </g>
    <path
       id="path984"
       style="fill:#ffffff;stroke:#ffffff;stroke-width:0.279387px;stroke-linecap:butt;stroke-linejoin:miter;stroke-opacity:1"
       d="m 76.067265,71.438122 v -3.765116 h -4.231267 -4.231267 -4.231267 -4.230748 -4.231267 v 3.765116 h 4.231267 l 3.76256,0.004 v 3.997659 3.997666 3.997149 3.997676 3.997149 3.997656 h 5.167643 v -3.997656 -3.997149 -3.997676 -3.997149 -3.997666 -3.997669 z"
       sodipodi:nodetypes="cccccccccccccccccccccccc" />
    <path
       id="path986"
       style="fill:#a1b2e0;fill-opacity:1;stroke:#9fb1e0;stroke-width:0.277887px;stroke-linecap:butt;stroke-linejoin:miter;stroke-opacity:1"
       d="m 73.190174,104.96639 3.108736,-8.091162 h 5.589225 l -10.874395,28.302242 -0.506386,0.004 h -0.57234 -4.004128 -0.57234 l -0.506375,-0.004 -10.874406,-28.302242 h 5.589225 l 3.108736,8.091162 1.481139,3.85512 m 0,0 3.776083,9.82779 3.776087,-9.82779 1.481139,-3.85512"
       sodipodi:nodetypes="ccccccccccccccc" />
    <path
       id="path988"
       style="fill:#ffffff;stroke:#ffffff;stroke-width:0.279387px;stroke-linecap:butt;stroke-linejoin:miter;stroke-opacity:1"
       d="m 83.758931,71.441742 v -3.765126 0 l -0.468188,-0.004 h -4.231267 l -0.468188,0.004 v 0 3.765126 0 0 3.997659 3.997666 3.997149 3.997666 3.997149 3.997666 h 5.167643 v -3.997666 -3.997149 -3.997666 -3.997149 -3.997656 z"
       sodipodi:nodetypes="cccccccccccccccccccccccc" />
    <path
       id="path990"
       style="fill:#a1b2e0;fill-opacity:1;stroke:#9fb1e0;stroke-width:0.279387px;stroke-linecap:butt;stroke-linejoin:miter;stroke-opacity:1"
       d="m 91.987961,96.875098 -2.106332,1.216454 -3.461803,1.997798 -3.462321,1.99884 2.848403,4.93355 3.462322,-1.99884 2.214851,-1.27848 -5.16e-4,1.24282 v 3.99769 3.99717 3.99821 3.99665 3.99769 h 5.696809 v -3.99769 -3.99665 -3.99821 -3.88245 -3.99769 -3.99717 -0.11524 -0.53433 -3.348102 -0.23202 h -3.298507 z" />
    <g
       aria-label="6"
       id="g994"
       style="font-style:normal;font-weight:normal;font-size:37.5453px;line-height:1.25;font-family:sans-serif;fill:#a1b2e0;fill-opacity:1;stroke:#9fb1e0;stroke-width:0.938635;stroke-opacity:1"
       transform="translate(-0.01055727,-22.068156)">
      <path
         d="m 123.9977,137.31995 c 0,1.4055 -0.25666,3.78378 -0.76997,5.01818 -0.51331,1.2344 -1.2344,2.27325 -2.16326,3.11656 -0.98996,0.90441 -2.13881,1.59494 -3.44654,2.07159 -1.29551,0.47665 -2.81712,0.71497 -4.56483,0.71497 -1.63772,0 -3.13489,-0.21999 -4.4915,-0.65997 -1.3444,-0.45221 -2.49936,-1.13663 -3.46488,-2.05326 -1.11218,-1.05107 -1.96159,-2.40769 -2.54824,-4.06985 -0.58665,-1.66217 -0.87997,-4.70654 -0.87997,-7.01645 0,-2.39547 0.27499,-4.52206 0.82497,-6.37977 0.54998,-1.85771 1.44828,-3.50154 2.69491,-4.93149 1.19773,-1.36883 2.7499,-2.9613 4.65649,-3.71905 1.91882,-0.75775 4.19818,-1.13663 6.83809,-1.13663 0.89219,0 1.86993,0.0611 2.93322,0.18333 1.0633,0.12222 1.75383,0.21388 2.0716,0.27499 v 5.90064 h -0.69665 c -0.32999,-0.15888 -0.89219,-0.33609 -1.6866,-0.53164 -0.78219,-0.20777 -1.67438,-0.31166 -2.67657,-0.31166 -2.34658,0 -4.17374,0.57442 -5.48147,1.72327 -1.30773,1.14885 -2.09603,2.7499 -2.36491,4.80316 0.94107,-0.5622 1.93104,-1.01441 2.96989,-1.35662 1.05107,-0.35443 2.18159,-0.53165 3.39154,-0.53165 1.0633,0 2.04715,0.12222 2.95156,0.36666 0.91663,0.24443 1.76605,0.63553 2.54824,1.17329 1.01441,0.70886 1.82716,1.66216 2.43825,2.85989 0.61109,1.19774 0.91663,2.69491 0.91663,4.49151 z m -8.34136,4.12485 c 0.37887,-0.41554 0.67831,-0.90441 0.8983,-1.46662 0.23221,-0.57442 0.34832,-1.3505 0.34832,-2.32824 0,-0.89219 -0.12833,-1.61939 -0.38499,-2.18159 -0.25665,-0.57443 -0.61108,-1.03274 -1.06329,-1.37495 -0.43999,-0.34221 -0.95941,-0.57443 -1.55828,-0.69664 -0.59887,-0.13444 -0.93258,-0.15441 -1.56812,-0.15441 -0.53775,0 -1.25966,0.25483 -1.80472,0.5731 -0.71383,0.41683 -1.81524,1.68956 -1.81524,1.68956 0,1.50328 0.14666,2.74379 0.43998,3.72153 0.30555,0.96553 0.70887,1.70495 1.20996,2.21826 0.34221,0.37887 0.74552,0.65997 1.20995,0.8433 0.46443,0.17111 0.96552,0.25666 1.50328,0.25666 0.40332,0 0.84942,-0.0917 1.33829,-0.27499 0.48887,-0.18333 0.90441,-0.45832 1.24662,-0.82497 z"
         style="font-style:normal;font-variant:normal;font-weight:bold;font-stretch:normal;font-family:sans-serif;-inkscape-font-specification:'sans-serif Bold';fill:#a1b2e0;fill-opacity:1;stroke:#9fb1e0;stroke-width:0.938635;stroke-opacity:1"
         id="path992"
         sodipodi:nodetypes="ssccsccsssccssccccssccsccssccscccsaccccsscc" />
    </g>
  </g>
</svg>
