<?xml version="1.0" encoding="UTF-8" standalone="no"?>
<svg
   xmlns:dc="http://purl.org/dc/elements/1.1/"
   xmlns:cc="http://creativecommons.org/ns#"
   xmlns:rdf="http://www.w3.org/1999/02/22-rdf-syntax-ns#"
   xmlns:svg="http://www.w3.org/2000/svg"
   xmlns="http://www.w3.org/2000/svg"
   xmlns:sodipodi="http://sodipodi.sourceforge.net/DTD/sodipodi-0.dtd"
   xmlns:inkscape="http://www.inkscape.org/namespaces/inkscape"
   sodipodi:docname="TiaV16.svg"
   inkscape:version="1.0.2 (e86c870879, 2021-01-15, custom)"
   id="svg2008"
   version="1.1"
   viewBox="0 0 60.262021 60.262112"
   height="60.262112mm"
   width="60.26202mm">
  <defs
     id="defs2002" />
  <sodipodi:namedview
     inkscape:window-maximized="0"
     inkscape:window-y="0"
     inkscape:window-x="953"
     inkscape:window-height="1008"
     inkscape:window-width="958"
     fit-margin-bottom="5"
     fit-margin-right="5"
     fit-margin-left="5"
     fit-margin-top="5"
     lock-margins="true"
     showgrid="false"
     inkscape:document-rotation="0"
     inkscape:current-layer="layer1"
     inkscape:document-units="mm"
     inkscape:cy="241.16311"
     inkscape:cx="130.08648"
     inkscape:zoom="0.98994949"
     inkscape:pageshadow="2"
     inkscape:pageopacity="0.0"
     borderopacity="1.0"
     bordercolor="#666666"
     pagecolor="#ffffff"
     id="base" />
  <metadata
     id="metadata2005">
    <rdf:RDF>
      <cc:Work
         rdf:about="">
        <dc:format>image/svg+xml</dc:format>
        <dc:type
           rdf:resource="http://purl.org/dc/dcmitype/StillImage" />
        <dc:title />
      </cc:Work>
    </rdf:RDF>
  </metadata>
  <g
     transform="translate(-117.44205,-165.10602)"
     id="layer1"
     inkscape:groupmode="layer"
     inkscape:label="Warstwa 1">
    <path
       id="path1808"
       style="fill:#000000;fill-opacity:1;stroke:#000000;stroke-width:1.69341;stroke-linecap:round;stroke-linejoin:round;stroke-miterlimit:4;stroke-dasharray:none"
       d="m 127.67962,170.95273 c -0.60814,0 -1.18688,0.12261 -1.71255,0.34417 -0.26284,0.11078 -0.51217,0.24611 -0.7457,0.40359 -0.23352,0.15748 -0.45115,0.33698 -0.64957,0.53537 -0.0992,0.0992 -0.19332,0.20276 -0.28267,0.31109 -8e-5,1e-4 8e-5,5.2e-4 0,5.2e-4 -0.0892,0.10823 -0.17402,0.22081 -0.2527,0.33745 -7e-5,1.1e-4 8e-5,5.3e-4 0,5.3e-4 -0.23614,0.35014 -0.423,0.73647 -0.55087,1.14928 -5e-5,1.6e-4 5e-5,2.7e-4 0,5.3e-4 -0.0426,0.1375 -0.0789,0.27764 -0.108,0.42065 -3e-5,1.6e-4 3e-5,2.6e-4 0,5.3e-4 -0.0291,0.14301 -0.0512,0.28887 -0.0661,0.43666 -1e-5,1.7e-4 2e-5,2.7e-4 0,5.3e-4 -0.0149,0.1478 -0.0227,0.29773 -0.0227,0.44959 v 5.3e-4 32.61764 5.3e-4 7.16856 c 0,2.43256 1.95839,4.39095 4.39094,4.39095 h 1.97145 c 12.60527,0 25.21053,0 37.81579,0 2.43255,0 4.39043,-1.95839 4.39043,-4.39095 v -1.97146 c 0,-12.60509 0,-25.21017 0,-37.81526 0,-0.60814 -0.12261,-1.18688 -0.34417,-1.71256 -0.0899,-0.21329 -0.19989,-0.41491 -0.32091,-0.60926 -0.06,-0.0964 -0.12358,-0.18994 -0.19069,-0.28112 -0.13102,-0.17801 -0.27145,-0.34894 -0.42736,-0.50488 -0.15595,-0.15591 -0.32687,-0.29633 -0.50489,-0.42736 -0.0912,-0.0671 -0.18469,-0.13066 -0.28112,-0.19069 -0.19434,-0.12101 -0.39597,-0.23101 -0.60925,-0.32091 -0.52554,-0.2215 -1.1041,-0.34409 -1.71204,-0.34417 -13.26243,0 -26.52483,0 -39.78724,0 z"
       sodipodi:nodetypes="csssscscscscscscccssccsccssscssscc" />
    <text
       xml:space="preserve"
       style="font-style:normal;font-weight:normal;font-size:17.6764px;line-height:1.25;font-family:sans-serif;fill:#ffffff;fill-opacity:1;stroke:none;stroke-width:0.441908"
       x="125.95115"
       y="188.82497"
       id="text2753"><tspan
         sodipodi:role="line"
         id="tspan2751"
         x="125.95115"
         y="188.82497"
         style="font-style:normal;font-variant:normal;font-weight:bold;font-stretch:normal;font-family:sans-serif;-inkscape-font-specification:'sans-serif Bold';fill:#ffffff;stroke-width:0.441908">PLC</tspan></text>
    <text
       id="text2757"
       y="196.51143"
       x="127.59205"
       style="font-style:normal;font-variant:normal;font-weight:normal;font-stretch:normal;font-size:6.94369px;line-height:1.25;font-family:sans-serif;-inkscape-font-specification:'sans-serif, Normal';font-variant-ligatures:normal;font-variant-caps:normal;font-variant-numeric:normal;font-variant-east-asian:normal;fill:#ffffff;fill-opacity:1;stroke:none;stroke-width:0.177188"
       xml:space="preserve"><tspan
         style="font-style:normal;font-variant:normal;font-weight:normal;font-stretch:normal;font-size:6.94369px;font-family:sans-serif;-inkscape-font-specification:'sans-serif, Normal';font-variant-ligatures:normal;font-variant-caps:normal;font-variant-numeric:normal;font-variant-east-asian:normal;fill:#ffffff;stroke-width:0.177188"
         y="196.51143"
         x="127.59205"
         id="tspan2755"
         sodipodi:role="line">TIA .NET</tspan></text>
    <text
       id="text854"
       y="217.04341"
       x="141.07959"
       style="font-style:normal;font-variant:normal;font-weight:normal;font-stretch:normal;font-size:8.47711px;line-height:1.25;font-family:sans-serif;-inkscape-font-specification:'sans-serif, Normal';font-variant-ligatures:normal;font-variant-caps:normal;font-variant-numeric:normal;font-variant-east-asian:normal;fill:#ffffff;fill-opacity:1;stroke:none;stroke-width:0.216099;"
       xml:space="preserve"><tspan
         style="font-style:normal;font-variant:normal;font-weight:normal;font-stretch:normal;font-size:8.47710889px;font-family:sans-serif;-inkscape-font-specification:'sans-serif, Normal';font-variant-ligatures:normal;font-variant-caps:normal;font-variant-numeric:normal;font-variant-east-asian:normal;fill:#ffffff;stroke-width:0.216099;"
         y="217.04341"
         x="141.07959"
         id="tspan852"
         sodipodi:role="line">Library</tspan></text>
  </g>
</svg>
